<?xml version="1.0" encoding="UTF-8" standalone="no"?>
<svg width="160" height="40" viewBox="0 0 160 40" fill="none" xmlns="http://www.w3.org/2000/svg">
  <rect width="40" height="40" rx="8" fill="#4F46E5"/>
  <path d="M18 12C14.6863 12 12 14.6863 12 18C12 21.3137 14.6863 24 18 24H22C25.3137 24 28 21.3137 28 18C28 14.6863 25.3137 12 22 12H18Z" stroke="white" stroke-width="2"/>
  <path d="M22 24V28" stroke="white" stroke-width="2" stroke-linecap="round"/>
  <path d="M18 24V28" stroke="white" stroke-width="2" stroke-linecap="round"/>
  <path d="M22 12V8" stroke="white" stroke-width="2" stroke-linecap="round"/>
  <path d="M18 12V8" stroke="white" stroke-width="2" stroke-linecap="round"/>
  <path d="M14 14L11 11" stroke="white" stroke-width="2" stroke-linecap="round"/>
  <path d="M26 14L29 11" stroke="white" stroke-width="2" stroke-linecap="round"/>
  <path d="M14 22L11 25" stroke="white" stroke-width="2" stroke-linecap="round"/>
  <path d="M26 22L29 25" stroke="white" stroke-width="2" stroke-linecap="round"/>
  <text x="48" y="25" font-family="'Inter', sans-serif" font-weight="700" font-size="18" fill="#1E293B">智能推荐</text>
</svg> 